<mxfile host="app.diagrams.net" modified="2023-12-12T13:25:10.224Z" agent="Mozilla/5.0 (Windows NT 10.0; Win64; x64) AppleWebKit/537.36 (KHTML, like Gecko) Chrome/120.0.0.0 Safari/537.36" etag="umOUIA0c240Y7_kITyp4" version="22.1.7" type="device">
  <diagram name="PÃ¡gina-1" id="mPE1J9Nlh4gU2GfA061W">
    <mxGraphModel dx="1195" dy="652" grid="1" gridSize="10" guides="1" tooltips="1" connect="1" arrows="1" fold="1" page="1" pageScale="1" pageWidth="827" pageHeight="1169" math="0" shadow="0">
      <root>
        <mxCell id="0" />
        <mxCell id="1" parent="0" />
        <mxCell id="pl5qgwXr7iJRtKqWnqlZ-4" value="Ontology" style="shape=document;whiteSpace=wrap;html=1;boundedLbl=1;" parent="1" vertex="1">
          <mxGeometry x="147" y="255" width="120" height="80" as="geometry" />
        </mxCell>
        <mxCell id="pl5qgwXr7iJRtKqWnqlZ-5" value="Parse ontology&lt;br&gt;(rdflib)" style="shape=process;whiteSpace=wrap;html=1;backgroundOutline=1;" parent="1" vertex="1">
          <mxGeometry x="147" y="365" width="120" height="60" as="geometry" />
        </mxCell>
        <mxCell id="pl5qgwXr7iJRtKqWnqlZ-6" value="" style="endArrow=classic;html=1;rounded=0;entryX=0.5;entryY=0;entryDx=0;entryDy=0;exitX=0.501;exitY=0.849;exitDx=0;exitDy=0;exitPerimeter=0;" parent="1" source="pl5qgwXr7iJRtKqWnqlZ-4" target="pl5qgwXr7iJRtKqWnqlZ-5" edge="1">
          <mxGeometry width="50" height="50" relative="1" as="geometry">
            <mxPoint x="287" y="525" as="sourcePoint" />
            <mxPoint x="337" y="475" as="targetPoint" />
          </mxGeometry>
        </mxCell>
        <mxCell id="ZGgF5hQ5RpT2w8QsAeHO-13" value="" style="shape=curlyBracket;whiteSpace=wrap;html=1;rounded=1;flipH=1;labelPosition=right;verticalLabelPosition=middle;align=left;verticalAlign=middle;rotation=-180;" vertex="1" parent="1">
          <mxGeometry x="280" y="340" width="20" height="115" as="geometry" />
        </mxCell>
        <mxCell id="ZGgF5hQ5RpT2w8QsAeHO-14" value="Rdflib store the ontology triples (subject predicate object) with the following format:&lt;br&gt;&lt;ul&gt;&lt;li&gt;URIRef: Named terms which are defined through an URI (classes, properties and datatypes)&lt;/li&gt;&lt;li&gt;BNode: Blank nodes (anonymous resources).&lt;/li&gt;&lt;li&gt;Literal: Data values (literal value and its datatype)&lt;/li&gt;&lt;/ul&gt;Ref: https://rdflib.readthedocs.io/en/stable/rdf_terms.html" style="text;html=1;strokeColor=none;fillColor=none;align=left;verticalAlign=middle;whiteSpace=wrap;rounded=0;" vertex="1" parent="1">
          <mxGeometry x="300" y="340" width="540" height="120" as="geometry" />
        </mxCell>
        <mxCell id="ZGgF5hQ5RpT2w8QsAeHO-15" value="Store information about each term" style="shape=process;whiteSpace=wrap;html=1;backgroundOutline=1;" vertex="1" parent="1">
          <mxGeometry x="147" y="525" width="120" height="60" as="geometry" />
        </mxCell>
        <mxCell id="ZGgF5hQ5RpT2w8QsAeHO-16" value="" style="endArrow=classic;html=1;rounded=0;entryX=0.5;entryY=0;entryDx=0;entryDy=0;exitX=0.5;exitY=1;exitDx=0;exitDy=0;" edge="1" parent="1" source="pl5qgwXr7iJRtKqWnqlZ-5" target="ZGgF5hQ5RpT2w8QsAeHO-15">
          <mxGeometry width="50" height="50" relative="1" as="geometry">
            <mxPoint x="206.58" y="440" as="sourcePoint" />
            <mxPoint x="206.58" y="482" as="targetPoint" />
          </mxGeometry>
        </mxCell>
        <mxCell id="ZGgF5hQ5RpT2w8QsAeHO-17" value="" style="shape=curlyBracket;whiteSpace=wrap;html=1;rounded=1;flipH=1;labelPosition=right;verticalLabelPosition=middle;align=left;verticalAlign=middle;rotation=-180;" vertex="1" parent="1">
          <mxGeometry x="280" y="485" width="20" height="135" as="geometry" />
        </mxCell>
        <mxCell id="ZGgF5hQ5RpT2w8QsAeHO-18" value="Our app extract the following information of each term:&lt;br&gt;&lt;ul&gt;&lt;li&gt;URIRef: We extract the URI. If there is a namespace defined in the ontology, the URI format is the following &quot;prefix:suffix&quot;.&lt;/li&gt;&lt;li&gt;BNode: We generate an unique identifier with the following format &quot;Blank nodeX&quot; where X is an autogenerated number. RDFlib generates uniques identifiers too.&lt;/li&gt;&lt;li&gt;Literal: We extract the data value and dataype with the following format &quot;Data value [&quot;data_value&quot;^^datatype]&quot; where data_value is the value and datatype is the datatype of the value.&lt;/li&gt;&lt;/ul&gt;" style="text;html=1;strokeColor=none;fillColor=none;align=left;verticalAlign=middle;whiteSpace=wrap;rounded=0;" vertex="1" parent="1">
          <mxGeometry x="300" y="487.5" width="540" height="140" as="geometry" />
        </mxCell>
        <mxCell id="ZGgF5hQ5RpT2w8QsAeHO-19" value="Write structure with the name of the terms" style="shape=process;whiteSpace=wrap;html=1;backgroundOutline=1;" vertex="1" parent="1">
          <mxGeometry x="230" y="660" width="120" height="60" as="geometry" />
        </mxCell>
        <mxCell id="ZGgF5hQ5RpT2w8QsAeHO-20" value="Write structure with the type of the terms" style="shape=process;whiteSpace=wrap;html=1;backgroundOutline=1;" vertex="1" parent="1">
          <mxGeometry x="230" y="740" width="120" height="60" as="geometry" />
        </mxCell>
        <mxCell id="ZGgF5hQ5RpT2w8QsAeHO-21" value="" style="endArrow=classic;html=1;rounded=0;entryX=0;entryY=0.5;entryDx=0;entryDy=0;exitX=0.5;exitY=1;exitDx=0;exitDy=0;edgeStyle=orthogonalEdgeStyle;" edge="1" parent="1" source="ZGgF5hQ5RpT2w8QsAeHO-15" target="ZGgF5hQ5RpT2w8QsAeHO-19">
          <mxGeometry width="50" height="50" relative="1" as="geometry">
            <mxPoint x="206.58" y="620" as="sourcePoint" />
            <mxPoint x="206.58" y="720" as="targetPoint" />
          </mxGeometry>
        </mxCell>
        <mxCell id="ZGgF5hQ5RpT2w8QsAeHO-22" value="" style="endArrow=classic;html=1;rounded=0;entryX=0;entryY=0.5;entryDx=0;entryDy=0;exitX=0.5;exitY=1;exitDx=0;exitDy=0;edgeStyle=orthogonalEdgeStyle;" edge="1" parent="1" source="ZGgF5hQ5RpT2w8QsAeHO-15" target="ZGgF5hQ5RpT2w8QsAeHO-20">
          <mxGeometry width="50" height="50" relative="1" as="geometry">
            <mxPoint x="217" y="595" as="sourcePoint" />
            <mxPoint x="240" y="700" as="targetPoint" />
          </mxGeometry>
        </mxCell>
        <mxCell id="ZGgF5hQ5RpT2w8QsAeHO-23" value="" style="shape=curlyBracket;whiteSpace=wrap;html=1;rounded=1;flipH=1;labelPosition=right;verticalLabelPosition=middle;align=left;verticalAlign=middle;rotation=-180;" vertex="1" parent="1">
          <mxGeometry x="360" y="662.5" width="20" height="226.25" as="geometry" />
        </mxCell>
        <mxCell id="ZGgF5hQ5RpT2w8QsAeHO-24" value="Our application&amp;nbsp;writes the types from the following cases&lt;br&gt;&lt;ol&gt;&lt;li&gt;&lt;span style=&quot;background-color: initial;&quot;&gt;If there is a triple in the ontology defining the type of the term (subject rdf:type object), the type of the term is the object of that triple. If there is more than one triple of these kind, the term has more than one type. This include the types that RDFlib infers (for example blank nodes that represents owl:Restriction).&lt;/span&gt;&lt;/li&gt;&lt;li&gt;&lt;span style=&quot;background-color: initial;&quot;&gt;If the term is a reused term (soft or hard reuse) the ontology in which the term is defined is parsed in an auxiliary RDFlib graph in order to check its type (as explained above).&lt;/span&gt;&lt;/li&gt;&lt;li&gt;&lt;span style=&quot;background-color: initial;&quot;&gt;If the term is a blank node (and RDFlib has not infered its type), its type is &quot;Blank node&quot;.&lt;/span&gt;&lt;/li&gt;&lt;li&gt;&lt;span style=&quot;background-color: initial;&quot;&gt;If the term is a data value, its type is &quot;Data Value&quot;.&lt;/span&gt;&lt;/li&gt;&lt;li&gt;&lt;span style=&quot;background-color: initial;&quot;&gt;If the term is a predefined datatype (xsd datatype), its type is datatype.&amp;nbsp;&lt;/span&gt;It should be noted that custom datatypes must have an explicit declaration in the ontology and therefore custom datatypes are treated as explained in cases 1 and 2.&lt;/li&gt;&lt;li&gt;The type is #Unknown&lt;/li&gt;&lt;/ol&gt;" style="text;html=1;strokeColor=none;fillColor=none;align=left;verticalAlign=middle;whiteSpace=wrap;rounded=0;" vertex="1" parent="1">
          <mxGeometry x="380" y="660" width="540" height="240" as="geometry" />
        </mxCell>
        <mxCell id="ZGgF5hQ5RpT2w8QsAeHO-25" value="Example of ontologies with:&lt;br&gt;&lt;ul&gt;&lt;li&gt;valid soft reuse with namespaces: af.rdf&lt;/li&gt;&lt;li&gt;valid soft reuse without namespaces: ro.rdf&lt;/li&gt;&lt;li&gt;invalid soft reuse with namespaces: sto.rdf&lt;/li&gt;&lt;li&gt;invalid soft reuse without namespaces: sto.rdf&lt;/li&gt;&lt;li&gt;valid hard reuse (import): a-loc.rdf&lt;/li&gt;&lt;li&gt;invalid hard reuse (import): eac-cpf.rdf&lt;/li&gt;&lt;/ul&gt;" style="text;html=1;strokeColor=none;fillColor=none;align=left;verticalAlign=middle;whiteSpace=wrap;rounded=0;" vertex="1" parent="1">
          <mxGeometry x="30" y="920" width="393" height="160" as="geometry" />
        </mxCell>
      </root>
    </mxGraphModel>
  </diagram>
</mxfile>
